<?xml version="1.0" encoding="UTF-8"?>
<svg version="1.1" xmlns="http://www.w3.org/2000/svg" width="296" height="306">
<path d="M0 0 C0.84310921 -0.00085442 1.68621842 -0.00170885 2.55487639 -0.00258917 C5.36616045 -0.00422986 8.1773842 0.00125423 10.98866272 0.00672913 C13.00937397 0.00701133 15.03008532 0.00685262 17.05079651 0.00628662 C22.52748906 0.00599994 28.00415967 0.01187589 33.48084712 0.01886058 C39.20769944 0.02511552 44.93455227 0.02569961 50.66140747 0.02688599 C61.50200679 0.02999298 72.34259601 0.03819787 83.18319088 0.04823548 C95.52652693 0.05941621 107.86986346 0.06491201 120.21320331 0.06993091 C145.60068301 0.080381 170.98815374 0.09796823 196.37562561 0.12025452 C196.46927488 26.29452925 196.53970549 52.4687787 196.5828743 78.64318752 C196.60345555 90.79779109 196.63149099 102.95229025 196.67738342 115.10682678 C196.71738737 125.70690534 196.74309063 136.30690825 196.75197959 146.90706021 C196.75717144 152.51415922 196.76928087 158.12104188 196.79854584 163.72807121 C196.82592957 169.01810409 196.83402471 174.30783388 196.82805634 179.59793091 C196.82914639 181.52748836 196.83696222 183.45705719 196.85244751 185.38655281 C197.05122729 211.45925795 189.60354999 236.64186567 171.37562561 256.12025452 C170.71562561 256.12025452 170.05562561 256.12025452 169.37562561 256.12025452 C169.37562561 180.55025452 169.37562561 104.98025452 169.37562561 27.12025452 C126.55812561 27.24400452 126.55812561 27.24400452 82.87562561 27.37025452 C69.389776 27.39394104 69.389776 27.39394104 55.63148499 27.41810608 C47.52460042 27.45135369 47.52460042 27.45135369 39.41773987 27.48982239 C35.8259004 27.50672727 32.23422756 27.5126906 28.64234924 27.51179504 C24.04257801 27.51101695 19.44324431 27.52956024 14.84358692 27.56134367 C13.16682859 27.5697773 11.49002046 27.57175938 9.81325054 27.56607866 C-4.05168399 27.52509799 -17.57112704 29.1841291 -29.99937439 35.87025452 C-30.65872986 36.21459534 -31.31808533 36.55893616 -31.99742126 36.91371155 C-48.78747007 45.95419082 -59.83342347 61.06301665 -65.62437439 79.12025452 C-68.08056056 87.69986687 -67.93214548 96.1805638 -67.94322205 105.02284241 C-67.95253169 106.72858652 -67.96270188 108.43432612 -67.97366333 110.14006042 C-68.00086066 114.74887508 -68.01608217 119.35765934 -68.02909136 123.96653295 C-68.044767 128.79120047 -68.07154302 133.61580634 -68.09712219 138.44042969 C-68.14383166 147.56680146 -68.1806136 156.69318493 -68.21379507 165.81961483 C-68.2520719 176.21385987 -68.30146744 186.60804287 -68.35177922 197.00223553 C-68.45498255 218.37486266 -68.54428055 239.74752911 -68.62437439 261.12025452 C-67.80899515 261.11011479 -66.99361591 261.09997507 -66.15352821 261.08952808 C-46.2887478 260.84631397 -26.42422492 260.66443487 -6.55826759 260.55032063 C3.04898514 260.4936645 12.65524243 260.41646316 22.26185608 260.29042053 C30.63773359 260.1805783 39.01289007 260.1097673 47.38946784 260.08528107 C51.82287936 260.07097247 56.25422877 260.03749515 60.68697739 259.95722389 C64.86551986 259.88217386 69.04116537 259.8595991 73.22031784 259.87607002 C74.74820751 259.87306029 76.27620074 259.85139453 77.80350494 259.80899429 C84.0121432 259.64518594 89.32583775 259.52670458 94.43576431 263.4992733 C96.96916915 266.26206397 99.18200338 269.08450789 101.37562561 272.12025452 C102.6709039 273.59390526 103.97995303 275.05579516 105.31312561 276.49525452 C107.68332086 279.21203492 109.67609646 281.92114083 111.37562561 285.12025452 C104.83853075 288.09166127 98.17282862 288.2682935 91.09292603 288.24050903 C89.88339017 288.24179067 89.88339017 288.24179067 88.64941925 288.2430982 C85.96250995 288.24473801 83.27566387 288.23925629 80.58876038 288.23377991 C78.65671795 288.23349769 76.72467542 288.23365645 74.79263306 288.23422241 C69.55766792 288.23450902 64.32272574 288.22863429 59.08776593 288.22164845 C53.61315862 288.21539225 48.13855077 288.21480932 42.66394043 288.21362305 C32.30145645 288.21051642 21.93898303 288.20231203 11.57650369 288.19227356 C-0.22270721 288.18109167 -12.02191861 288.17559674 -23.82113349 288.17057812 C-48.08888631 288.16012887 -72.35662976 288.14254236 -96.62437439 288.12025452 C-96.67120978 263.38017501 -96.70641959 238.64010221 -96.72799873 213.89998722 C-96.73828707 202.41130143 -96.75230044 190.92264327 -96.7752533 179.43397522 C-96.79526223 169.41401205 -96.80810855 159.39406891 -96.81255138 149.37408632 C-96.81514611 144.07445986 -96.82119332 138.77489067 -96.8358345 133.47528267 C-96.84953729 128.47422147 -96.85357171 123.47324044 -96.85058975 118.47216225 C-96.85113429 116.64904594 -96.85503536 114.8259266 -96.86278534 113.00282669 C-96.99012624 81.46657871 -90.87126893 53.64929096 -68.62437439 30.12025452 C-68.04429626 29.46154358 -67.46421814 28.80283264 -66.86656189 28.12416077 C-50.40929409 10.21964579 -23.98386985 -0.08988203 0 0 Z " fill="#333333" transform="translate(96.62437438964844,-0.1202545166015625)"/>
<path d="M0 0 C18.01191922 -0.0702915 36.0238025 -0.12308636 54.03582954 -0.15543652 C62.40039804 -0.17086101 70.76488098 -0.19186532 79.12939453 -0.22631836 C86.4256461 -0.25635678 93.72183566 -0.27560705 101.01814735 -0.28226548 C104.87629307 -0.28615346 108.73426149 -0.29519685 112.59235001 -0.31719017 C116.23506181 -0.33778447 119.87752587 -0.34378832 123.52029037 -0.33932304 C125.47140439 -0.34052228 127.42249239 -0.35654289 129.37353516 -0.3732605 C149.22589142 -0.30487665 167.74431983 5.92358884 182.25 19.75 C198.76649038 37.05174349 202.48683123 57.16344483 202.34057617 80.12255859 C202.33972812 82.00637295 202.34020851 83.89018829 202.34190369 85.77400208 C202.34275811 90.84541412 202.32522269 95.91660968 202.30418181 100.98797178 C202.28532204 106.30370684 202.28365728 111.61944783 202.28010559 116.93521118 C202.2708123 126.98230229 202.24623556 137.0292945 202.21605712 147.07634223 C202.1824282 158.5226262 202.16600582 169.96891509 202.15097082 181.41523623 C202.11968338 204.94354548 202.06697613 228.47176718 202 252 C198.7091012 250.90303373 198.03203283 250.15198144 195.875 247.5625 C193.13168105 244.32723567 190.34768648 241.14411801 187.5 238 C184.23295665 234.37976277 181.00479224 230.73016435 177.8046875 227.05078125 C175.77041859 224.73911203 173.6977769 222.4646857 171.625 220.1875 C167.77006744 215.92093905 164.11600051 211.52641333 160.53125 207.03125 C159.6959375 206.0309375 158.860625 205.030625 158 204 C157.47797501 203.19348999 156.95595001 202.38697998 156.41810608 201.55603027 C153.15306678 197.0747391 150.67677071 194.39723224 145.17098999 193.09289551 C140.43771436 192.65192246 135.71140058 192.77096842 130.96484375 192.875 C129.19999427 192.87629386 127.4351357 192.87287124 125.67030334 192.86499023 C121.03459308 192.85554033 116.40134256 192.90382065 111.76611328 192.96636963 C105.27093815 193.04359303 98.77523552 193.04189574 92.27967834 193.04931641 C88.82981081 193.05347224 85.38120541 193.0787697 81.93162537 193.12255859 C58.90322266 193.34735685 37.56647776 189.65247457 20.08984375 173.21875 C4.97033676 157.16663791 -0.17835012 138.73579689 -0.11352539 117.27172852 C-0.11367142 116.00274216 -0.11381744 114.7337558 -0.1139679 113.42631531 C-0.11425363 109.96401599 -0.10839309 106.50175164 -0.10139394 103.03946042 C-0.09512313 99.41465004 -0.09455366 95.78983877 -0.09336853 92.1650238 C-0.09026618 85.30871796 -0.08206761 78.45242815 -0.07201904 71.59612936 C-0.06082381 63.78716982 -0.05533887 55.9782095 -0.05032361 48.16924393 C-0.03988404 32.11281992 -0.02230589 16.05641201 0 0 Z M27 27 C26.90712013 40.63064694 26.83614357 54.26121797 26.79275131 67.8921175 C26.77192008 74.22221914 26.74368366 80.55210347 26.69824219 86.88208008 C26.65462578 92.99642751 26.63082935 99.11056655 26.62049103 105.2250576 C26.61312802 107.55213893 26.59875003 109.87920948 26.57707977 112.20620155 C26.54783645 115.47796468 26.54405281 118.74887815 26.54589844 122.02075195 C26.53151733 122.9723822 26.51713623 123.92401245 26.50231934 124.90447998 C26.57711777 137.24272778 31.49936641 146.16882572 39.84375 154.9375 C48.96942346 163.61436985 59.16841977 166.20256373 71.37329102 165.99902344 C73.31563219 165.97626542 75.25797983 165.9540538 77.20033264 165.93231201 C78.22687517 165.91952965 79.2534177 165.90674728 80.31106758 165.89357758 C86.91437494 165.82284111 93.51812585 165.81678856 100.12175083 165.79972458 C105.91513678 165.78108892 111.70655211 165.73922213 117.49926758 165.64697266 C123.1143795 165.5588312 128.72659395 165.53484344 134.34232903 165.55335236 C136.47334745 165.54907102 138.60445519 165.5219771 140.73486519 165.4708786 C158.2576373 165.07109086 158.2576373 165.07109086 163.91549683 169.85119629 C167.01920041 172.9668792 169.4833874 176.40264674 172 180 C173.3009748 181.36492495 174.62148011 182.71343928 176 184 C176.04682688 168.78743528 176.08204105 153.5748739 176.10362434 138.36225319 C176.11391449 131.29795541 176.1279313 124.23370254 176.15087891 117.16943359 C176.17302583 110.34836783 176.1845788 103.5273487 176.18975449 96.70624924 C176.19344161 94.10763186 176.2006416 91.50901694 176.21146011 88.91041946 C176.22603861 85.26265255 176.22797526 81.61507665 176.22705078 77.96728516 C176.23783661 76.36613358 176.23783661 76.36613358 176.24884033 74.7326355 C176.21251749 61.43368497 173.17352857 48.60415101 163.8203125 38.58984375 C153.69556265 29.74698283 143.63075908 26.52282319 130.42163086 26.65942383 C128.73716858 26.65876671 128.73716858 26.65876671 127.01867676 26.65809631 C123.33388438 26.66017412 119.64955594 26.68345817 115.96484375 26.70703125 C113.39938099 26.71263077 110.833915 26.71689919 108.26844788 26.71989441 C102.22315012 26.73014991 96.17804928 26.753756 90.1328302 26.78394288 C83.24523051 26.81758281 76.35762257 26.83399689 69.46996105 26.84902918 C55.31321658 26.88030875 41.15661733 26.93300899 27 27 Z " fill="#333333" transform="translate(48,52)"/>
</svg>
